# xmcd
#
# Track frame offsets:
#	150
#	16512
#	29794
#	47566
#	62864
#	83567
#	101641
#	122478
#	140317
#	162280
#	179502
#
# Disc length: 2625 seconds
#
# Revision: 0
# Processed by: cddbd v1.5.2PL0 Copyright (c) Steve Scherf et al.
# Submitted via: audiograbber 1.83.01
#
DISCID=880a3f0b
DTITLE=Willie Nelson - Ride Me Back Home
DYEAR=2019
DGENRE=Country
TTITLE0=Ride Me Back Home
TTITLE1=Come On Time
TTITLE2=My Favorite Picture Of You
TTITLE3=Seven Year Itch
TTITLE4=Immigrant Eyes
TTITLE5=Stay Away From Lonely Places
TTITLE6=Just The Way You Are
TTITLE7=One More Song To Write
TTITLE8=Nobody's Listening
TTITLE9=It's Hard To Be Humble
TTITLE10=Maybe I Should've Been Listening
EXTD=
EXTT0=
EXTT1=
EXTT2=
EXTT3=
EXTT4=
EXTT5=
EXTT6=
EXTT7=
EXTT8=
EXTT9=
EXTT10=
PLAYORDER=
